<?xml version="1.0" encoding="iso-8859-1"?>
<!-- Generator: Adobe Illustrator 19.0.0, SVG Export Plug-In . SVG Version: 6.00 Build 0)  -->
<svg version="1.1" id="Capa_1" xmlns="http://www.w3.org/2000/svg" xmlns:xlink="http://www.w3.org/1999/xlink" x="0px" y="0px"
	 viewBox="0 0 512.001 512.001" style="enable-background:new 0 0 512.001 512.001;" xml:space="preserve">
<g>
	<g>
		<path d="M380.435,209.647c-0.627-2.091-1.44-4.052-2.422-5.893c10.039-35.099-16.773-64.97-17.957-66.264
			c-1.448-1.584-3.468-2.454-5.652-2.442c-2.147,0.03-4.176,0.978-5.579,2.602c-16.092,18.641-21.791,36.445-23.526,49.371
			c-0.546,0.255-1.091,0.515-1.625,0.803c-19.851,10.693-24.228,40.116-26.333,54.256l-0.059,0.4
			c-0.876,5.884-4.617,13.043-9.123,19.838l9.525-61.122c5.54-35.555,0.868-61.836-13.887-78.114
			c-0.962-1.061-1.944-2.047-2.94-2.975c-0.948-64.766-28.314-85.018-29.498-85.862c-2.608-1.858-6.11-1.858-8.719,0
			c-1.185,0.844-28.555,21.099-29.499,85.875c-7.403,6.9-14.329,17.642-17.398,34.346c-0.75,4.081,1.95,7.996,6.031,8.747
			c4.078,0.75,7.996-1.949,8.747-6.031c2.277-12.39,7.204-21.662,14.677-27.661c0.036-0.028,0.076-0.048,0.112-0.077
			c0.161-0.128,0.324-0.249,0.486-0.374c0.237-0.182,0.477-0.362,0.719-0.538c0.345-0.249,0.69-0.489,1.036-0.72
			c0.265-0.177,0.534-0.352,0.805-0.522c0.388-0.243,0.775-0.474,1.163-0.696c0.226-0.129,0.454-0.256,0.683-0.382
			c8.302-4.493,16.17-4.285,16.421-4.273c0.282,0.019,0.449,0.017,0.748,0c0.025-0.001,0.082-0.003,0.154-0.005
			c1.136-0.02,11.745,0.001,21.162,7.509c0.022,0.018,0.048,0.03,0.071,0.047c1.389,1.116,2.757,2.395,4.069,3.863
			c11.265,12.604,14.726,35.263,10.01,65.528l-13.844,88.835c-0.504,3.23,1.141,6.416,4.066,7.877
			c2.924,1.462,6.46,0.863,8.74-1.479c2.778-2.852,27.224-28.469,30.344-49.423l0.06-0.402c1.744-11.723,5.373-36.116,18.596-43.238
			c4.724-2.545,10.726-2.747,17.906-0.612c0.044,0.013,0.089,0.028,0.133,0.041c0.506,0.152,1.019,0.318,1.536,0.493
			c0.158,0.054,0.319,0.11,0.479,0.166c0.413,0.144,0.829,0.296,1.249,0.456c0.194,0.073,0.389,0.147,0.585,0.223
			c0.413,0.161,0.829,0.332,1.249,0.507c0.187,0.078,0.373,0.153,0.561,0.233c0.578,0.248,1.162,0.507,1.753,0.78
			c0.021,0.01,0.042,0.019,0.064,0.029c0.005,0.002,0.009,0.005,0.014,0.007c0.554,0.258,1.074,0.532,1.581,0.812
			c0.151,0.084,0.302,0.167,0.45,0.253c0.445,0.259,0.87,0.528,1.278,0.806c0.213,0.146,0.415,0.3,0.617,0.453
			c0.185,0.137,0.364,0.278,0.541,0.421c1.122,0.912,2.088,1.92,2.897,3.041c0.04,0.055,0.087,0.103,0.129,0.157
			c0.965,1.378,1.704,2.914,2.223,4.642c6.165,20.559-18.903,61.154-33.88,85.409c-6.556,10.617-11.734,19.002-14.219,24.912
			c-13.852,32.957-57.455,58.106-70.946,58.106c-13.492,0-57.094-25.149-70.946-58.105c-2.484-5.911-7.663-14.297-14.219-24.914
			c-14.978-24.254-40.045-64.85-33.879-85.408c0.519-1.73,1.259-3.265,2.224-4.644c0.041-0.053,0.088-0.101,0.127-0.155
			c0.807-1.119,1.771-2.124,2.89-3.034c0.182-0.147,0.367-0.293,0.558-0.435c0.199-0.149,0.396-0.299,0.604-0.444
			c0.411-0.28,0.839-0.551,1.288-0.812c0.143-0.084,0.291-0.165,0.438-0.247c0.513-0.284,1.039-0.562,1.601-0.822
			c0.615-0.285,1.222-0.555,1.824-0.812c0.18-0.077,0.358-0.149,0.537-0.223c0.428-0.178,0.852-0.353,1.273-0.517
			c0.191-0.075,0.381-0.146,0.571-0.218c0.423-0.16,0.841-0.313,1.257-0.458c0.16-0.056,0.32-0.113,0.479-0.166
			c0.51-0.173,1.016-0.336,1.515-0.486c0.052-0.016,0.106-0.034,0.159-0.049c7.177-2.132,13.177-1.931,17.901,0.614
			c13.224,7.123,16.853,31.516,18.597,43.239l0.06,0.401c3.119,20.953,27.566,46.572,30.345,49.423
			c2.28,2.342,5.815,2.941,8.74,1.479c2.925-1.46,4.569-4.647,4.066-7.877l-13.844-88.835c-0.763-4.896-1.322-9.65-1.663-14.13
			c-0.315-4.137-3.919-7.238-8.06-6.922c-4.137,0.315-7.236,3.924-6.922,8.06c0.371,4.871,0.976,10.02,1.799,15.303l9.525,61.122
			c-4.508-6.795-8.247-13.954-9.123-19.838l-0.059-0.4c-2.104-14.141-6.481-43.564-26.333-54.256
			c-0.534-0.287-1.079-0.547-1.625-0.802c-1.735-12.927-7.435-30.731-23.526-49.371c-1.402-1.625-3.433-2.572-5.579-2.602
			c-2.184-0.021-4.204,0.858-5.652,2.442c-1.184,1.294-27.996,31.166-17.957,66.264c-0.983,1.841-1.796,3.802-2.422,5.893
			c-8.104,27.026,17.091,67.827,35.487,97.619c5.967,9.662,11.12,18.008,13.151,22.841c9.501,22.605,29.407,39.506,40.427,47.569
			c16.641,12.175,33.642,19.739,44.37,19.739c10.728,0,27.729-7.564,44.37-19.739c11.02-8.063,30.927-24.965,40.427-47.569
			c2.031-4.833,7.184-13.178,13.151-22.84C363.343,277.474,388.539,236.673,380.435,209.647z M247.981,106.913
			c-0.008,0-0.016,0-0.024,0c-0.382-0.003-0.699,0-0.93,0.006c-1.968-0.065-9.521-0.029-18.483,3.506
			c2.162-34.021,12.452-51.728,18.449-59.302c6.027,7.607,16.304,25.316,18.462,59.313
			C257.639,107.368,250.833,106.938,247.981,106.913z M365.099,190.987c-0.063-0.035-0.132-0.064-0.195-0.099
			c-0.732-0.398-1.479-0.783-2.258-1.145c-0.96-0.446-1.911-0.865-2.855-1.26c-0.14-0.058-0.277-0.107-0.417-0.165
			c-0.807-0.332-1.612-0.653-2.406-0.948c-0.082-0.03-0.163-0.055-0.245-0.085c-5.523-2.02-10.746-3.123-15.652-3.314
			c1.781-8.254,5.591-18.302,13.289-29.088c1.776,2.73,3.746,6.128,5.511,10.021C363.97,173.942,365.714,182.674,365.099,190.987z
			 M134.128,164.905c1.765-3.893,3.736-7.292,5.511-10.021c7.698,10.785,11.507,20.835,13.289,29.089
			c-4.937,0.191-10.196,1.304-15.758,3.35c-0.044,0.016-0.087,0.029-0.131,0.046c-0.826,0.306-1.661,0.638-2.5,0.984
			c-0.109,0.045-0.217,0.083-0.327,0.129c-0.945,0.395-1.897,0.814-2.858,1.261c-0.778,0.362-1.526,0.748-2.258,1.145
			c-0.063,0.035-0.132,0.064-0.195,0.099C128.285,182.674,130.03,173.943,134.128,164.905z"/>
	</g>
</g>
<g>
	<g>
		<path d="M511.923,234.693c0-0.018,0-0.035,0-0.053c-0.013-43.394-5.397-78.906-16.461-108.556
			c-10.388-27.838-25.559-49.884-46.379-67.397c-30.107-25.325-68.436-38.44-115.391-47.262c-0.05-0.01-0.099-0.019-0.149-0.028
			C321.308,9.102,308.5,7.093,295.089,5.24C207.568-6.853,141.92,1.938,94.39,32.112c-3.503,2.224-4.54,6.866-2.317,10.369
			c2.224,3.503,6.866,4.539,10.369,2.317c44.4-28.188,106.743-36.256,190.59-24.674c11.826,1.634,23.16,3.384,34.007,5.346
			l10.341,23.254c0.909,2.045,2.685,3.58,4.841,4.183l21.846,6.108l1.221,23.345c0.209,4.01,3.527,7.121,7.495,7.12
			c0.132,0,0.265-0.003,0.399-0.01c4.144-0.216,7.327-3.751,7.11-7.894l-1.503-28.734c-0.168-3.22-2.374-5.974-5.479-6.843
			l-23.638-6.61l-4.597-10.337c38.144,8.299,69.586,20.315,94.334,41.133c18.785,15.802,32.515,35.806,41.974,61.153
			c10.071,26.988,15.134,59.456,15.481,99.096l-26.86,15.19c-1.315,0.743-2.375,1.866-3.042,3.221l-14.499,29.451l-22.761-7.182
			c-3.96-1.249-8.177,0.947-9.425,4.904c-1.249,3.957,0.947,8.177,4.903,9.425l28.912,9.123c0.749,0.236,1.51,0.35,2.261,0.35
			c2.798,0,5.448-1.571,6.74-4.196l16.324-33.159l17.074-9.656c-1.483,24.665-7.185,47.276-17.037,67.352
			c-8.647,17.62-20.695,33.733-35.909,48.049c-3.511,3.304-7.19,6.512-11.035,9.62c-35.695,28.858-87.167,50.368-152.988,63.932
			c-1.347,0.277-2.698,0.543-4.051,0.8c-0.442,0.084-0.886,0.16-1.329,0.242c-0.914,0.168-1.827,0.337-2.744,0.495
			c-0.527,0.091-1.055,0.175-1.583,0.263c-0.834,0.139-1.67,0.279-2.507,0.411c-0.565,0.089-1.131,0.171-1.696,0.256
			c-0.803,0.121-1.607,0.241-2.412,0.355c-0.584,0.082-1.169,0.16-1.754,0.238c-0.788,0.106-1.577,0.21-2.367,0.31
			c-0.596,0.075-1.193,0.145-1.79,0.216c-0.784,0.093-1.57,0.183-2.355,0.269c-0.597,0.065-1.195,0.128-1.793,0.19
			c-0.788,0.081-1.578,0.159-2.367,0.233c-0.596,0.056-1.193,0.111-1.79,0.163c-0.797,0.07-1.595,0.135-2.393,0.197
			c-0.587,0.046-1.174,0.092-1.762,0.134c-0.814,0.059-1.63,0.112-2.445,0.163c-0.574,0.036-1.147,0.073-1.721,0.106
			c-0.84,0.048-1.682,0.089-2.523,0.129c-0.547,0.026-1.095,0.054-1.642,0.077c-0.889,0.037-1.78,0.066-2.669,0.095
			c-0.501,0.016-1.002,0.036-1.503,0.049c-1.004,0.027-2.007,0.044-3.011,0.06c-0.387,0.006-0.773,0.016-1.16,0.021
			c-2.803,0.033-5.606,0.024-8.408-0.027c-0.332-0.006-0.663-0.017-0.995-0.025c-1.06-0.023-2.12-0.049-3.179-0.084
			c-0.474-0.016-0.948-0.037-1.42-0.056c-0.919-0.035-1.837-0.071-2.755-0.115c-0.527-0.025-1.054-0.056-1.581-0.085
			c-0.863-0.046-1.726-0.094-2.588-0.148c-0.558-0.035-1.115-0.075-1.673-0.114c-0.83-0.057-1.662-0.117-2.491-0.181
			c-0.573-0.045-1.145-0.093-1.717-0.142c-0.817-0.069-1.635-0.141-2.452-0.217c-0.577-0.054-1.154-0.11-1.731-0.168
			c-0.807-0.081-1.615-0.164-2.421-0.252c-0.585-0.064-1.169-0.128-1.753-0.196c-0.8-0.092-1.6-0.188-2.398-0.287
			c-0.582-0.072-1.164-0.145-1.745-0.22c-0.804-0.105-1.608-0.215-2.411-0.328c-0.573-0.08-1.145-0.159-1.717-0.242
			c-0.817-0.119-1.632-0.245-2.447-0.372c-0.555-0.086-1.11-0.17-1.665-0.26c-0.841-0.136-1.682-0.28-2.521-0.424
			c-0.524-0.09-1.05-0.176-1.573-0.269c-0.91-0.161-1.816-0.332-2.723-0.502c-0.451-0.085-0.902-0.165-1.351-0.252
			c-1.181-0.228-2.359-0.467-3.536-0.711c-0.173-0.036-0.348-0.069-0.521-0.105c-1.345-0.281-2.687-0.575-4.025-0.876
			c-0.438-0.099-0.872-0.204-1.309-0.306c-0.898-0.208-1.798-0.416-2.693-0.633c-0.545-0.132-1.087-0.271-1.631-0.407
			c-0.783-0.195-1.568-0.39-2.349-0.592c-0.586-0.152-1.17-0.31-1.754-0.466c-0.55-0.146-1.099-0.294-1.648-0.445l0.021-0.035
			l15.13-25.002c0.687-1.135,1.054-2.419,1.084-3.719c0.018-0.78-0.086-1.566-0.315-2.328l-18.011-60.076
			c-0.883-2.948-3.477-5.059-6.544-5.327c-0.765-0.067-1.523-0.015-2.249,0.143c-0.238,0.052-0.468,0.133-0.699,0.207
			c-0.12,0.039-0.245,0.063-0.364,0.108c-0.969,0.368-1.848,0.943-2.592,1.672c-0.051,0.05-0.11,0.091-0.159,0.142
			c-0.1,0.104-0.184,0.226-0.279,0.337c-0.392,0.457-0.746,0.951-1.024,1.505l-17.552,34.965c-0.24,0.479-0.429,0.982-0.563,1.5
			l-4.724,18.386l-26.025,8.84c-1.318-0.862-2.613-1.74-3.898-2.624c-0.271-0.187-0.544-0.375-0.816-0.564
			c-2.703-1.883-5.336-3.814-7.888-5.798c-0.051-0.039-0.101-0.078-0.152-0.118c-39.018-30.375-60.262-72.251-60.262-119.662
			c0-44.911,4.097-83.539,12.38-116.233l14.019,15.173v20.923c0,2.44,1.186,4.729,3.179,6.136l21.712,15.333
			c1.316,0.93,2.829,1.376,4.327,1.376c2.358,0,4.68-1.107,6.143-3.179c2.393-3.389,1.586-8.077-1.803-10.47l-18.533-13.087v-19.971
			c0-1.89-0.712-3.71-1.995-5.099l-22.213-24.038c11.005-34.417,27.327-61.401,49.139-81.38c3.06-2.802,3.268-7.555,0.466-10.614
			c-2.802-3.06-7.555-3.268-10.614-0.466c-24.466,22.407-42.499,52.624-54.307,91.168c-0.295,0.638-0.495,1.31-0.602,1.995
			C5.474,179.52,0.071,223.494,0.071,275.374c0,6.202,0,20.706,0,22.059v27.899c0,50.275,23.913,98.124,63.965,127.998
			c6.096,4.547,12.509,8.936,19.065,13.053c0.004,0.002,0.007,0.005,0.011,0.008l0.217,0.138c0.199,0.124,0.41,0.222,0.617,0.327
			c0.105,0.052,0.204,0.117,0.312,0.165c0.221,0.098,0.451,0.17,0.679,0.246c0.103,0.034,0.203,0.081,0.309,0.111
			c0.252,0.072,0.51,0.117,0.768,0.162c0.085,0.015,0.167,0.041,0.252,0.053c0.344,0.048,0.691,0.072,1.039,0.072
			c0.99,0,1.983-0.195,2.921-0.591l43.765-18.47v37.922c0,3.165,1.983,5.991,4.961,7.066
			c33.825,12.214,70.505,18.408,109.023,18.408c45.267,0,88.891-9.476,129.659-28.163c3.772-1.729,5.428-6.188,3.699-9.96
			c-1.729-3.772-6.19-5.427-9.96-3.699c-38.791,17.781-80.308,26.797-123.399,26.797c-34.891,0-68.154-5.305-98.958-15.776v-33.878
			c0.113,0.031,0.227,0.059,0.341,0.09c0.297,0.081,0.595,0.157,0.891,0.237c1.287,0.346,2.578,0.683,3.872,1.011
			c0.485,0.122,0.971,0.242,1.455,0.363c1.175,0.29,2.352,0.573,3.532,0.848c0.452,0.105,0.903,0.213,1.355,0.317
			c1.605,0.366,3.213,0.722,4.828,1.06c0.012,0.002,0.024,0.005,0.036,0.007c1.592,0.333,3.188,0.649,4.788,0.955
			c0.482,0.092,0.964,0.18,1.446,0.269c1.167,0.216,2.335,0.427,3.506,0.629c0.52,0.09,1.04,0.18,1.561,0.267
			c1.304,0.218,2.61,0.427,3.92,0.627c0.329,0.05,0.656,0.104,0.985,0.153c1.621,0.242,3.244,0.471,4.871,0.685
			c0.432,0.057,0.865,0.109,1.296,0.164c1.218,0.155,2.438,0.305,3.659,0.445c0.548,0.063,1.097,0.124,1.646,0.184
			c1.186,0.129,2.373,0.25,3.562,0.366c0.479,0.046,0.958,0.095,1.436,0.139c1.633,0.149,3.267,0.288,4.903,0.411
			c0.255,0.019,0.512,0.034,0.767,0.052c1.396,0.101,2.794,0.192,4.192,0.272c0.537,0.031,1.075,0.058,1.612,0.086
			c1.164,0.061,2.328,0.115,3.493,0.162c0.535,0.022,1.07,0.044,1.605,0.063c1.417,0.05,2.835,0.089,4.252,0.118
			c0.238,0.005,0.478,0.013,0.716,0.018c1.647,0.03,3.294,0.043,4.941,0.046c0.14,0,0.279,0.004,0.42,0.004
			c0.214,0,0.429-0.007,0.643-0.008c2.136-0.005,4.27-0.028,6.405-0.079c0.103-0.003,0.206-0.003,0.31-0.006
			c2.175-0.054,4.347-0.14,6.519-0.242c0.379-0.018,0.758-0.034,1.137-0.053c2.096-0.107,4.191-0.238,6.282-0.391
			c0.399-0.029,0.797-0.06,1.196-0.091c2.136-0.164,4.268-0.348,6.397-0.559c0.208-0.021,0.417-0.045,0.625-0.066
			c2.075-0.211,4.146-0.446,6.213-0.702c0.26-0.032,0.521-0.061,0.781-0.094c2.104-0.266,4.202-0.561,6.295-0.874
			c0.399-0.06,0.797-0.119,1.196-0.181c2.068-0.319,4.133-0.659,6.189-1.024c0.345-0.061,0.688-0.125,1.033-0.188
			c2.152-0.39,4.298-0.797,6.435-1.238c68.194-14.052,121.824-36.582,159.402-66.964c1.508-1.219,2.988-2.452,4.447-3.698
			c0.485-0.414,0.954-0.837,1.433-1.254c0.965-0.838,1.929-1.677,2.872-2.527c0.557-0.502,1.098-1.014,1.647-1.52
			c0.844-0.778,1.689-1.557,2.515-2.345c0.573-0.546,1.132-1.101,1.696-1.652c0.779-0.761,1.558-1.523,2.321-2.293
			c0.571-0.577,1.131-1.16,1.693-1.741c0.733-0.759,1.463-1.519,2.181-2.286c0.56-0.599,1.11-1.202,1.661-1.806
			c0.697-0.764,1.388-1.532,2.07-2.305c0.542-0.615,1.078-1.233,1.611-1.854c0.667-0.776,1.326-1.557,1.978-2.342
			c0.521-0.627,1.039-1.257,1.55-1.89c0.641-0.793,1.272-1.592,1.898-2.393c0.496-0.635,0.991-1.271,1.477-1.911
			c0.62-0.816,1.228-1.639,1.832-2.464c0.468-0.638,0.938-1.275,1.396-1.919c0.603-0.845,1.191-1.7,1.778-2.554
			c0.436-0.634,0.875-1.265,1.302-1.904c0.597-0.893,1.175-1.796,1.755-2.698c0.393-0.611,0.792-1.218,1.176-1.834
			c0.616-0.986,1.21-1.983,1.805-2.98c0.325-0.544,0.66-1.083,0.979-1.631c0.745-1.279,1.466-2.571,2.179-3.868
			c0.151-0.274,0.31-0.545,0.46-0.82c0.854-1.577,1.683-3.165,2.487-4.768c0.234-0.466,0.453-0.94,0.683-1.407
			c0.561-1.141,1.12-2.284,1.657-3.438c0.288-0.621,0.561-1.251,0.842-1.875c0.457-1.014,0.914-2.026,1.351-3.049
			c0.066-0.154,0.138-0.307,0.204-0.461c-0.367,41.906-18.741,81.482-50.541,108.756c-15.402,13.21-31.884,24.932-48.987,34.841
			c-3.59,2.08-4.814,6.677-2.735,10.267c2.08,3.59,6.676,4.814,10.267,2.735c17.899-10.369,35.137-22.629,51.236-36.437
			c35.456-30.41,55.791-74.673,55.791-121.442v-77.045C511.924,234.761,511.923,234.727,511.923,234.693z M79.591,446.026
			c-2.225-1.558-4.422-3.136-6.572-4.74c-30.184-22.514-50.246-56.313-56.128-93.278c2.195,4.376,4.626,8.653,7.241,12.85
			c0.058,0.094,0.116,0.188,0.175,0.281c0.832,1.329,1.685,2.649,2.56,3.961c0.184,0.276,0.371,0.552,0.557,0.827
			c0.494,0.731,0.971,1.47,1.478,2.196c0.385,0.55,0.786,1.09,1.178,1.636c0.031,0.043,0.062,0.086,0.093,0.13
			c0.965,1.341,1.95,2.67,2.958,3.988c0.094,0.124,0.188,0.248,0.284,0.373c1.033,1.342,2.085,2.674,3.162,3.991
			c0.025,0.03,0.049,0.061,0.074,0.092c2.221,2.711,4.536,5.366,6.941,7.962c0.215,0.232,0.437,0.462,0.653,0.693
			c0.946,1.011,1.904,2.013,2.878,3.006c0.337,0.344,0.677,0.684,1.018,1.026c0.888,0.893,1.789,1.777,2.701,2.654
			c0.367,0.354,0.733,0.707,1.104,1.058c0.961,0.909,1.935,1.809,2.919,2.701c0.314,0.284,0.621,0.571,0.937,0.853
			c2.614,2.34,5.312,4.624,8.093,6.848c0.377,0.301,0.761,0.597,1.14,0.896c1.007,0.794,2.021,1.583,3.049,2.361
			c0.495,0.375,0.994,0.746,1.493,1.117c0.949,0.705,1.905,1.403,2.872,2.095c0.524,0.376,1.048,0.751,1.578,1.123
			c1.016,0.714,2.043,1.417,3.078,2.118c0.473,0.32,0.941,0.644,1.418,0.961c0.355,0.235,0.711,0.47,1.069,0.704V446.026z
			 M136.333,431.307l-41.718,17.606V417.8l28.204-9.579c2.401-0.815,4.229-2.788,4.86-5.244l5.535-21.542l8.71-17.35l11.624,38.774
			L136.333,431.307z"/>
	</g>
</g>
<g>
</g>
<g>
</g>
<g>
</g>
<g>
</g>
<g>
</g>
<g>
</g>
<g>
</g>
<g>
</g>
<g>
</g>
<g>
</g>
<g>
</g>
<g>
</g>
<g>
</g>
<g>
</g>
<g>
</g>
</svg>
